<svg id="Layer_1" data-name="Layer 1" xmlns="http://www.w3.org/2000/svg" viewBox="0 0 458.54 53.3"><title>Untitled-1</title><path d="M4,39.11l15.15-1a11.54,11.54,0,0,0,2,5.62,8.4,8.4,0,0,0,7,3.13,7.78,7.78,0,0,0,5.26-1.6,4.79,4.79,0,0,0,1.84-3.71A4.7,4.7,0,0,0,33.56,38q-1.76-1.59-8.15-3-10.48-2.36-14.94-6.26A12.59,12.59,0,0,1,6,18.82a13.49,13.49,0,0,1,2.3-7.51,15.28,15.28,0,0,1,6.92-5.55q4.64-2,12.68-2,9.87,0,15.06,3.67T49.1,19.1l-15,.88a8.09,8.09,0,0,0-2.51-5.06,8,8,0,0,0-5.29-1.58,6.42,6.42,0,0,0-4.19,1.17,3.63,3.63,0,0,0-1.4,2.87,2.83,2.83,0,0,0,1.16,2.21c.75.68,2.53,1.32,5.34,1.9q10.44,2.25,15,4.55a15.72,15.72,0,0,1,6.57,5.72,14.47,14.47,0,0,1,2.06,7.63,16.33,16.33,0,0,1-2.74,9.14,17.11,17.11,0,0,1-7.67,6.34A31,31,0,0,1,28,57Q14.83,57,9.76,52A20,20,0,0,1,4,39.11Z" transform="translate(-4.03 -3.74)"/><path d="M57.86,4.62H72.17v19A19.1,19.1,0,0,1,78,19.28,16.4,16.4,0,0,1,84.79,18q5.83,0,9.19,3.55t3.36,10.9V56.16H83V35.62c0-2.34-.44-4-1.3-5A4.67,4.67,0,0,0,78,29.19a5.22,5.22,0,0,0-4.22,2c-1.08,1.31-1.61,3.67-1.61,7.07V56.16H57.86Z" transform="translate(-4.03 -3.74)"/><path d="M106.41,4.62h14.31v9.74H106.41Zm0,14.2h14.31V56.16H106.41Z" transform="translate(-4.03 -3.74)"/><path d="M130,18.82h13.39v6.12a14.64,14.64,0,0,1,4-5.47A8.39,8.39,0,0,1,152.46,18a15,15,0,0,1,6.93,2L155,30.14a11.33,11.33,0,0,0-4-1.05,4.93,4.93,0,0,0-4.36,2.32q-2.22,3.27-2.21,12.23V56.16H130Z" transform="translate(-4.03 -3.74)"/><path d="M182.66,4.62v14.2h7.88V29.3h-7.88V42.52a7,7,0,0,0,.46,3.16,2.61,2.61,0,0,0,2.46,1.2A15.76,15.76,0,0,0,190,46l1.05,9.88A46.78,46.78,0,0,1,181.15,57q-5.34,0-7.88-1.37a8.37,8.37,0,0,1-3.74-4.16q-1.22-2.79-1.21-9V29.3H163V18.82h5.28V12Z" transform="translate(-4.03 -3.74)"/><path d="M248.23,37.49V26.77h24.61v22a50.4,50.4,0,0,1-12.5,6.55A42.12,42.12,0,0,1,247.45,57q-9.16,0-14.95-3.13a21.4,21.4,0,0,1-9-9.32,30.65,30.65,0,0,1-3.18-14.2,29.65,29.65,0,0,1,3.48-14.68A22.59,22.59,0,0,1,234,6.23q5.25-2.49,14.1-2.49,8.55,0,12.78,1.55a16.57,16.57,0,0,1,7,4.79,21.15,21.15,0,0,1,4.2,8.25l-15.36,2.74a8.23,8.23,0,0,0-3.22-4.46,10,10,0,0,0-5.78-1.55,10.43,10.43,0,0,0-8.35,3.64q-3.1,3.63-3.11,11.51,0,8.37,3.15,11.95t8.77,3.59a16.89,16.89,0,0,0,5.1-.77,28.21,28.21,0,0,0,5.55-2.64V37.49Z" transform="translate(-4.03 -3.74)"/><path d="M322.79,41H294.11A9.2,9.2,0,0,0,296,46.17a6.78,6.78,0,0,0,5.41,2.43,8,8,0,0,0,4-1.06,9.29,9.29,0,0,0,2.5-2.35l14.1,1.3a20.21,20.21,0,0,1-7.81,8.07Q309.61,57,301.07,57q-7.43,0-11.67-2.09a17.12,17.12,0,0,1-7-6.65,20,20,0,0,1-2.8-10.7q0-8.76,5.61-14.17T300.65,18q8,0,12.65,2.42a16.38,16.38,0,0,1,7.07,7q2.43,4.6,2.42,12Zm-14.55-6.86c-.28-2.76-1-4.74-2.23-5.94a7,7,0,0,0-10.22.92,10,10,0,0,0-1.65,5Z" transform="translate(-4.03 -3.74)"/><path d="M370.82,41H342.13A9.28,9.28,0,0,0,344,46.17a6.8,6.8,0,0,0,5.42,2.43,8.1,8.1,0,0,0,4-1.06,9.42,9.42,0,0,0,2.49-2.35l14.1,1.3a20.21,20.21,0,0,1-7.81,8.07Q357.64,57,349.09,57c-4.94,0-8.84-.7-11.67-2.09a17.12,17.12,0,0,1-7.05-6.65,20.05,20.05,0,0,1-2.79-10.7q0-8.76,5.6-14.17T348.67,18q8,0,12.66,2.42a16.41,16.41,0,0,1,7.06,7q2.43,4.6,2.43,12Zm-14.56-6.86Q355.84,30,354,28.24a7,7,0,0,0-10.21.92,9.83,9.83,0,0,0-1.65,5Z" transform="translate(-4.03 -3.74)"/><path d="M377.39,4.62H392v26.6l10.68-12.4h17.62L406.92,31.9l14.17,24.26H405l-7.56-15L392,46.45v9.71H377.39Z" transform="translate(-4.03 -3.74)"/><path d="M422.88,45.79l14.21-1.34a6.94,6.94,0,0,0,2.46,3.62,7.27,7.27,0,0,0,4.22,1.09,7.11,7.11,0,0,0,4.46-1.23,2.75,2.75,0,0,0,1.23-2.28,2.61,2.61,0,0,0-1.62-2.39,29.64,29.64,0,0,0-6.15-1.47,64,64,0,0,1-10.35-2.41,10.9,10.9,0,0,1-4.89-3.74,9.72,9.72,0,0,1-2-6,9.84,9.84,0,0,1,2.14-6.36,12.79,12.79,0,0,1,5.91-4A31.6,31.6,0,0,1,442.61,18a34.9,34.9,0,0,1,9.86,1,12.88,12.88,0,0,1,5.31,3.16,16.68,16.68,0,0,1,3.53,5.8L447.74,29.3A4.62,4.62,0,0,0,446,26.66a7.16,7.16,0,0,0-4.08-1.12,5.75,5.75,0,0,0-3.53.86,2.56,2.56,0,0,0-1.11,2.08,2.21,2.21,0,0,0,1.41,2.07,22.75,22.75,0,0,0,6.12,1.27,42,42,0,0,1,10.61,2.25,11.71,11.71,0,0,1,5.33,4.11A10.09,10.09,0,0,1,462.58,44a11.59,11.59,0,0,1-2,6.29,13.2,13.2,0,0,1-6.15,4.86Q450.27,57,443,57q-10.23,0-14.57-2.92A13.1,13.1,0,0,1,422.88,45.79Z" transform="translate(-4.03 -3.74)"/></svg>
